<?xml version="1.0" standalone="no"?>
<!DOCTYPE svg PUBLIC "-//W3C//DTD SVG 20010904//EN"
 "http://www.w3.org/TR/2001/REC-SVG-20010904/DTD/svg10.dtd">
<svg version="1.0" xmlns="http://www.w3.org/2000/svg"
 width="256.000000pt" height="256.000000pt" viewBox="0 0 256.000000 256.000000"
 preserveAspectRatio="xMidYMid meet">
<metadata>
Created by potrace 1.11, written by Peter Selinger 2001-2013
</metadata>
<g transform="translate(0.000000,256.000000) scale(0.100000,-0.100000)"
fill="#000000" stroke="none">
<path d="M1319 2386 c-2 -2 -24 -6 -49 -9 -147 -19 -331 -95 -452 -186 -344
-261 -484 -668 -397 -1154 60 -339 323 -634 644 -724 172 -48 413 -53 605 -13
142 30 387 123 391 149 3 18 4 898 1 911 -3 13 -47 15 -345 15 l-342 0 0 -107
c-1 -68 3 -108 10 -109 5 0 106 -1 224 -2 l215 -2 0 -279 c1 -172 -3 -284 -9
-292 -21 -27 -173 -76 -274 -89 -329 -41 -603 69 -757 305 -39 61 -89 169 -99
215 -2 11 -6 31 -9 45 -3 14 -8 39 -11 55 -3 17 -7 44 -10 60 -17 101 -1 328
31 434 28 95 94 227 139 278 125 141 220 206 365 251 128 39 307 46 465 16 65
-12 87 -18 158 -41 42 -13 106 -40 142 -59 56 -30 65 -32 66 -17 1 26 1 226 0
239 -1 7 -9 14 -18 17 -10 3 -49 16 -88 30 -63 23 -100 32 -200 53 -35 7 -389
17 -396 10z"/>
</g>
</svg>
